<svg width="121" height="101" viewBox="0 0 121 101" fill="none" xmlns="http://www.w3.org/2000/svg">
    <g id="shapes">
        <rect width="121" height="101" fill="white"/>
        <g id="dark">
            <path  
                id="dark_2" 
                opacity="0.7" 
                d="M45.373 47.8126C46.6503 48.5849 46.6622 50.4335 45.395 51.2221L15.3395 69.9263C14.0122 70.7523 12.2929 69.8044 12.2828 68.2411L12.0447 31.221C12.0347 29.6576 13.7416 28.6877 15.0795 29.4966L45.373 47.8126Z" 
                fill="#0E7490"
            />
            <path 
                id="dark_1" 
                opacity="0.7" 
                d="M63.373 47.8126C64.6503 48.5849 64.6622 50.4335 63.395 51.2221L33.3395 69.9263C32.0122 70.7523 30.2929 69.8044 30.2828 68.2411L30.0447 31.221C30.0347 29.6576 31.7416 28.6877 33.0795 29.4966L63.373 47.8126Z" 
                fill="#0E7490"
            />
        </g>
        <g id="light">
            <path 
                id="light_2" 
                opacity="0.7" 
                d="M45.373 47.8126C46.6503 48.5849 46.6622 50.4335 45.395 51.2221L15.3395 69.9263C14.0122 70.7523 12.2929 69.8044 12.2828 68.2411L12.0447 31.221C12.0347 29.6576 13.7416 28.6877 15.0795 29.4966L45.373 47.8126Z" 
                fill="#22D3EE"
            />
        </g>
    </g>
</svg>
